<mxfile host="65bd71144e">
    <diagram id="1u1e9IVpWRoiOnE48jDR" name="第 1 页">
        <mxGraphModel dx="2313" dy="2896" grid="1" gridSize="10" guides="1" tooltips="1" connect="1" arrows="1" fold="1" page="1" pageScale="1" pageWidth="1200" pageHeight="1920" background="#666666" math="0" shadow="0">
            <root>
                <mxCell id="0"/>
                <mxCell id="1" parent="0"/>
                <mxCell id="19" value="贯穿知识点讲解" style="shape=process;whiteSpace=wrap;html=1;backgroundOutline=1;gradientColor=none;" parent="1" vertex="1">
                    <mxGeometry x="-950" y="-1540" width="120" height="60" as="geometry"/>
                </mxCell>
                <mxCell id="20" value="融合知识点" style="rounded=1;whiteSpace=wrap;html=1;gradientColor=none;" parent="1" vertex="1">
                    <mxGeometry x="-950" y="-1670" width="120" height="60" as="geometry"/>
                </mxCell>
                <mxCell id="22" value="基本知识点" style="ellipse;whiteSpace=wrap;html=1;gradientColor=none;" parent="1" vertex="1">
                    <mxGeometry x="-950" y="-1800" width="120" height="80" as="geometry"/>
                </mxCell>
                <mxCell id="23" value="blog文档" style="shape=document;whiteSpace=wrap;html=1;boundedLbl=1;gradientColor=none;" parent="1" vertex="1">
                    <mxGeometry x="-950" y="-1410" width="120" height="80" as="geometry"/>
                </mxCell>
                <mxCell id="24" value="扩展知识点" style="ellipse;shape=cloud;whiteSpace=wrap;html=1;" parent="1" vertex="1">
                    <mxGeometry x="-680" y="-1680" width="120" height="80" as="geometry"/>
                </mxCell>
                <mxCell id="25" value="" style="shape=hexagon;perimeter=hexagonPerimeter2;whiteSpace=wrap;html=1;fixedSize=1;" parent="1" vertex="1">
                    <mxGeometry x="-680" y="-1550" width="120" height="80" as="geometry"/>
                </mxCell>
                <mxCell id="26" value="" style="shape=step;perimeter=stepPerimeter;whiteSpace=wrap;html=1;fixedSize=1;" parent="1" vertex="1">
                    <mxGeometry x="-680" y="-1420" width="120" height="80" as="geometry"/>
                </mxCell>
            </root>
        </mxGraphModel>
    </diagram>
</mxfile>